<svg width="218" height="238" viewBox="0 0 218 238" fill="none" xmlns="http://www.w3.org/2000/svg">
<path fill-rule="evenodd" clip-rule="evenodd" d="M0 38.8811C0 17.4076 17.4077 0 38.8812 0H133.728C180.254 0 217.97 37.7167 217.97 84.2426C217.97 130.768 180.254 168.485 133.728 168.485H81.297V199.119C81.297 220.592 63.8893 238 42.4158 238H38.8812C17.4077 238 0 220.592 0 199.119V168.485V140.208V38.8811ZM143.742 10.0158C162.79 24.3508 190.282 61.7396 147.866 96.6148C143.153 100.385 134.906 100.935 131.371 100.739H36.5247C27.0989 100.346 8.24747 104.391 8.24747 123.714V178.501C10.2112 172.413 18.1445 160.239 34.1683 160.239C50.192 160.239 116.643 158.668 147.866 157.882C155.328 157.489 173.434 152.698 186.158 136.674C200.768 122.064 206.777 100.739 207.955 91.9019C209.919 69.1231 199.826 20.8554 143.742 10.0158Z" fill="white"/>
<path d="M57.9707 64.9277H120.579C128.263 64.9277 134.492 71.1568 134.492 78.8407C134.492 86.5247 128.263 92.7537 120.579 92.7537H57.9707V64.9277Z" fill="#FF382C"/>
</svg>
