<svg width="36" height="36" viewBox="0 0 36 36" fill="none" xmlns="http://www.w3.org/2000/svg">
<path d="M3 26.25H13.5" stroke="white" stroke-width="1.5" stroke-miterlimit="10" stroke-linecap="round" stroke-linejoin="round"/>
<path d="M28.5 26.25H33" stroke="white" stroke-width="1.5" stroke-miterlimit="10" stroke-linecap="round" stroke-linejoin="round"/>
<path d="M3 9.75H7.5" stroke="white" stroke-width="1.5" stroke-miterlimit="10" stroke-linecap="round" stroke-linejoin="round"/>
<path d="M22.5 9.75H33" stroke="white" stroke-width="1.5" stroke-miterlimit="10" stroke-linecap="round" stroke-linejoin="round"/>
<path d="M25.5 21.75H16.5C14.85 21.75 13.5 22.5 13.5 24.75V27.75C13.5 30 14.85 30.75 16.5 30.75H25.5C27.15 30.75 28.5 30 28.5 27.75V24.75C28.5 22.5 27.15 21.75 25.5 21.75Z" stroke="white" stroke-width="1.5" stroke-miterlimit="10" stroke-linecap="round" stroke-linejoin="round"/>
<path d="M19.5 5.25H10.5C8.85 5.25 7.5 6 7.5 8.25V11.25C7.5 13.5 8.85 14.25 10.5 14.25H19.5C21.15 14.25 22.5 13.5 22.5 11.25V8.25C22.5 6 21.15 5.25 19.5 5.25Z" stroke="white" stroke-width="1.5" stroke-miterlimit="10" stroke-linecap="round" stroke-linejoin="round"/>
</svg>
