<svg width="25" height="24" viewBox="0 0 25 24" fill="none" xmlns="http://www.w3.org/2000/svg">
<path d="M16.28 11.9999C16.28 13.9799 14.68 15.5799 12.7 15.5799C10.72 15.5799 9.11996 13.9799 9.11996 11.9999C9.11996 10.0199 10.72 8.41992 12.7 8.41992C14.68 8.41992 16.28 10.0199 16.28 11.9999Z" stroke="#C2C2C2" stroke-width="1.5" stroke-linecap="round" stroke-linejoin="round"/>
<path d="M12.6999 20.2697C16.2299 20.2697 19.5199 18.1897 21.8099 14.5897C22.7099 13.1797 22.7099 10.8097 21.8099 9.39973C19.5199 5.79973 16.2299 3.71973 12.6999 3.71973C9.16995 3.71973 5.87995 5.79973 3.58995 9.39973C2.68995 10.8097 2.68995 13.1797 3.58995 14.5897C5.87995 18.1897 9.16995 20.2697 12.6999 20.2697Z" stroke="#C2C2C2" stroke-width="1.5" stroke-linecap="round" stroke-linejoin="round"/>
</svg>
