<svg width="94" height="103" viewBox="0 0 94 103" fill="none" xmlns="http://www.w3.org/2000/svg">
<path fill-rule="evenodd" clip-rule="evenodd" d="M0 16.7676C0 7.50711 7.5071 0 16.7676 0H57.6703C77.7346 0 94 16.2654 94 36.3297C94 56.3941 77.7346 72.6595 57.6703 72.6595H35.0595V85.8703C35.0595 95.1307 27.5524 102.638 18.2919 102.638H16.7676C7.5071 102.638 0 95.1307 0 85.8703V72.6595V60.4649V16.7676ZM61.9892 4.31893C70.2036 10.5009 82.0594 26.6249 63.7676 41.6649C61.7351 43.2908 58.1784 43.5279 56.654 43.4432H15.7513C11.6865 43.2739 3.55674 45.0184 3.55674 53.3514V76.9784C4.40359 74.3532 7.82485 69.1027 14.7351 69.1027C21.6454 69.1027 50.3027 68.4252 63.7676 68.0865C66.9856 67.9171 74.7935 65.8508 80.2811 58.9405C86.5816 52.64 89.173 43.4432 89.6811 39.6324C90.5279 29.809 86.1751 8.99352 61.9892 4.31893Z" fill="white"/>
<path d="M25 28H52C55.3137 28 58 30.6863 58 34C58 37.3137 55.3137 40 52 40H25V28Z" fill="#FF382C"/>
</svg>
