<svg width="445" height="511" viewBox="0 0 445 511" fill="none" xmlns="http://www.w3.org/2000/svg">
<g clip-path="url(#clip0_138_8624)">
<path d="M222.44 495.46C345.29 495.46 444.88 489.432 444.88 481.996C444.88 474.559 345.29 468.531 222.44 468.531C99.5898 468.531 0 474.559 0 481.996C0 489.432 99.5898 495.46 222.44 495.46Z" fill="#EDEDED"/>
<path d="M154.639 271.479C153.852 269.191 151.835 268.047 149.819 268.047C147.803 268.047 145.787 269.191 145 271.479L129.9 315.083H169.76L154.66 271.479H154.639Z" fill="#FF382C"/>
<path d="M169.739 315.083H129.879L113.593 362.129H186.035L169.739 315.083Z" fill="#E8E6E8"/>
<path d="M186.035 362.129H113.593L97.2965 409.165H202.321L186.035 362.129Z" fill="#FF382C"/>
<path d="M81.0104 456.211L76.8733 468.143H222.755L218.618 456.211H81.0104Z" fill="#FF382C"/>
<path d="M202.321 409.165H97.2965L81.0104 456.211H218.618L202.321 409.165Z" fill="#E8E6E8"/>
<path opacity="0.27" d="M152.003 268.519L164.142 315.083L207.802 482.646H164.247L151.993 315.083L148.57 268.194L152.003 268.519Z" fill="white"/>
<path d="M240.658 488.481H58.9597C53.342 488.481 48.7848 483.927 48.7848 478.312C48.7848 472.698 53.342 468.143 58.9597 468.143H240.658C246.276 468.143 250.833 472.698 250.833 478.312C250.833 483.927 246.276 488.481 240.658 488.481Z" fill="#FF382C"/>
<path d="M311.798 203.811H296.384V486.067H311.798V203.811Z" fill="#133E87"/>
<path d="M421.769 104.167L361.591 208.345H241.236L207.603 150.143L181.058 104.167L241.236 0H361.591L397.072 61.413L421.769 104.167Z" fill="#FF382C"/>
<path d="M353.579 13.8629L405.756 104.177L353.579 194.492H249.237L197.061 104.177L249.237 13.8629H353.579ZM356.614 8.61572H246.213L191.012 104.177L246.213 199.739H356.614L411.814 104.177L356.614 8.61572Z" fill="white"/>
<path opacity="0.22" d="M397.072 61.413C375.241 30.5806 243.01 72.1383 207.613 150.143L181.058 104.167L241.236 0H361.591L397.072 61.413Z" fill="white"/>
<path d="M259.286 113.203V69.8398H241.635L214.848 113.517V124.484H246.78V138.441H259.275V124.484H269.671V113.203H259.275H259.286ZM227.407 113.203L246.948 82.2337V113.203H227.407Z" fill="white"/>
<path d="M327.706 94.355C327.381 92.0148 326.929 89.8424 326.352 87.8485C325.06 83.4094 323.265 79.7678 320.965 76.9344C318.665 74.1009 315.935 72.0125 312.743 70.6902C309.562 69.3574 306.075 68.6963 302.295 68.6963C297.948 68.6963 294.063 69.5044 290.629 71.11C287.206 72.7156 284.308 75.0559 281.967 78.1097C279.625 81.1741 277.829 84.9311 276.58 89.3702C275.341 93.8198 274.721 98.8571 274.721 104.493C274.721 110.128 275.204 114.536 276.17 118.576C276.328 119.216 276.485 119.846 276.664 120.454C277.955 124.904 279.761 128.556 282.072 131.4C284.382 134.255 287.133 136.343 290.314 137.676C293.496 139.009 296.982 139.67 300.762 139.67C305.141 139.67 309.026 138.862 312.428 137.256C315.82 135.65 318.707 133.31 321.07 130.256C323.433 127.192 325.228 123.435 326.457 118.996C327.685 114.546 328.294 109.509 328.294 103.873C328.294 100.431 328.095 97.2619 327.706 94.3655V94.355ZM301.518 129.207C298.82 129.207 296.457 128.388 294.431 126.741C291.333 124.232 289.348 118.901 288.382 112.867C287.29 106.13 287.458 98.5318 288.729 92.9907C289.453 89.8844 290.43 87.2923 291.669 85.2249C292.918 83.1575 294.378 81.6253 296.058 80.6284C297.738 79.6314 299.555 79.1382 301.518 79.1382C304.248 79.1382 306.621 79.9672 308.638 81.6253C309.562 82.3809 314.476 86.1169 315.274 100.221C315.347 101.491 315.389 102.845 315.389 104.283C315.389 126.898 305.33 129.217 301.529 129.217L301.518 129.207Z" fill="white"/>
<path d="M377.562 113.203V69.8398H359.911L351.91 82.8843L333.124 113.507V124.474H365.056V138.431H377.551V124.474H387.957V113.192H377.551L377.562 113.203ZM365.224 113.203H345.683L365.224 82.2337V113.203Z" fill="white"/>
<path d="M328.641 486.067H279.53C277.514 486.067 275.876 484.43 275.876 482.415C275.876 466.841 288.508 454.227 304.08 454.227C319.663 454.227 332.284 466.852 332.284 482.415C332.284 484.43 330.646 486.067 328.63 486.067H328.641Z" fill="#133E87"/>
</g>
<defs>
<clipPath id="clip0_138_8624">
<rect width="444.89" height="511" fill="white"/>
</clipPath>
</defs>
</svg>
